<svg width="116" height="12" viewBox="0 0 116 12" fill="none" xmlns="http://www.w3.org/2000/svg">
<path d="M11.344 12L6.48 7.856H4.384V12H0.96V0.799999H4.384V4.944H6.464L11.328 0.799999H15.792L9.248 6.384L15.808 12H11.344ZM30.323 7.728C31.251 8.208 31.651 8.416 31.651 11.072V12H28.259V9.328H19.939V12H16.515V0.799999H26.755C31.139 0.799999 31.651 1.184 31.651 5.056C31.651 6.72 31.251 7.28 30.323 7.728ZM28.243 6.528V3.6H19.939V6.528H28.243ZM36.5253 7.648V9.2H47.5973V11.984L33.1013 12V0.799999H47.5973V3.6H36.5253V5.152H47.3093V7.648H36.5253ZM56.8233 0.799999C64.2793 0.799999 64.5833 1.104 64.5833 6.4C64.5833 11.696 64.2953 11.984 56.8233 11.984L49.0313 12V0.799999H56.8233ZM61.1593 9.2V3.6H52.4553V9.2H61.1593ZM65.9769 0.799999H69.4009V12H65.9769V0.799999ZM85.0486 6.08C85.2246 6.192 86.2966 6.704 86.2966 8.608C86.2966 12 85.0966 12 80.9526 12H71.0006V0.799999H81.3046C84.4406 0.799999 85.8166 0.799999 85.8166 3.92C85.8166 5.616 85.2086 5.936 85.0486 6.08ZM82.8726 9.504V7.648H74.4246V9.504H82.8726ZM82.8726 5.168V3.296H74.4246V5.168H82.8726ZM90.9796 9.504H100.5V12H87.5556V0.799999H90.9796V9.504ZM104.722 7.648V9.2H115.794V11.984L101.298 12V0.799999H115.794V3.6H104.722V5.152H115.506V7.648H104.722Z" fill="white"/>
</svg>
