<svg width="279" height="380" viewBox="0 0 279 380" fill="none" xmlns="http://www.w3.org/2000/svg">
<rect width="279" height="380" fill="#28282B"/>
<path d="M45.9432 24.7273V48H41.0227V24.7273H45.9432ZM54.1975 37.9091V48H49.3566V30.5455H53.9702V33.625H54.1748C54.5611 32.6098 55.2088 31.8068 56.1179 31.2159C57.027 30.6174 58.1293 30.3182 59.4248 30.3182C60.6369 30.3182 61.6937 30.5833 62.5952 31.1136C63.4967 31.6439 64.1975 32.4015 64.6975 33.3864C65.1975 34.3636 65.4475 35.5303 65.4475 36.8864V48H60.6066V37.75C60.6141 36.6818 60.3414 35.8485 59.7884 35.25C59.2354 34.6439 58.474 34.3409 57.5043 34.3409C56.8528 34.3409 56.277 34.4811 55.777 34.7614C55.2846 35.0417 54.8982 35.4508 54.6179 35.9886C54.3452 36.5189 54.2051 37.1591 54.1975 37.9091ZM76.6052 48.3409C74.8173 48.3409 73.2794 47.9621 71.9915 47.2045C70.7112 46.4394 69.7264 45.3788 69.037 44.0227C68.3552 42.6667 68.0143 41.1061 68.0143 39.3409C68.0143 37.553 68.359 35.9848 69.0484 34.6364C69.7453 33.2803 70.734 32.2235 72.0143 31.4659C73.2946 30.7008 74.8173 30.3182 76.5825 30.3182C78.1052 30.3182 79.4385 30.5947 80.5825 31.1477C81.7264 31.7008 82.6317 32.4773 83.2984 33.4773C83.965 34.4773 84.3325 35.6515 84.4006 37H79.8325C79.7037 36.1288 79.3628 35.428 78.8097 34.8977C78.2643 34.3598 77.5484 34.0909 76.662 34.0909C75.912 34.0909 75.2567 34.2955 74.6961 34.7045C74.1431 35.1061 73.7112 35.6932 73.4006 36.4659C73.09 37.2386 72.9347 38.1742 72.9347 39.2727C72.9347 40.3864 73.0862 41.3333 73.3893 42.1136C73.6999 42.8939 74.1355 43.4886 74.6961 43.8977C75.2567 44.3068 75.912 44.5114 76.662 44.5114C77.215 44.5114 77.7112 44.3977 78.1506 44.1705C78.5976 43.9432 78.965 43.6136 79.2529 43.1818C79.5484 42.7424 79.7415 42.2159 79.8325 41.6023H84.4006C84.3249 42.9356 83.9612 44.1098 83.3097 45.125C82.6658 46.1326 81.7756 46.9205 80.6393 47.4886C79.5029 48.0568 78.1582 48.3409 76.6052 48.3409ZM94.9106 48.3409C93.1152 48.3409 91.5697 47.9773 90.2743 47.25C88.9864 46.5152 87.9939 45.4773 87.297 44.1364C86.6 42.7879 86.2515 41.1932 86.2515 39.3523C86.2515 37.5568 86.6 35.9811 87.297 34.625C87.9939 33.2689 88.975 32.2121 90.2402 31.4545C91.5129 30.697 93.0053 30.3182 94.7174 30.3182C95.8689 30.3182 96.9409 30.5038 97.9333 30.875C98.9333 31.2386 99.8046 31.7879 100.547 32.5227C101.297 33.2576 101.88 34.1818 102.297 35.2955C102.714 36.4015 102.922 37.697 102.922 39.1818V40.5114H88.1833V37.5114H98.3652C98.3652 36.8144 98.2136 36.197 97.9106 35.6591C97.6076 35.1212 97.1871 34.7008 96.6493 34.3977C96.1189 34.0871 95.5015 33.9318 94.797 33.9318C94.0621 33.9318 93.4106 34.1023 92.8424 34.4432C92.2818 34.7765 91.8424 35.2273 91.5243 35.7955C91.2061 36.3561 91.0432 36.9811 91.0356 37.6705V40.5227C91.0356 41.3864 91.1947 42.1326 91.5129 42.7614C91.8386 43.3902 92.297 43.875 92.8879 44.2159C93.4788 44.5568 94.1796 44.7273 94.9902 44.7273C95.528 44.7273 96.0205 44.6515 96.4674 44.5C96.9144 44.3485 97.297 44.1212 97.6152 43.8182C97.9333 43.5152 98.1758 43.1439 98.3424 42.7045L102.82 43C102.592 44.0758 102.127 45.0152 101.422 45.8182C100.725 46.6136 99.8235 47.2348 98.7174 47.6818C97.6189 48.1212 96.35 48.3409 94.9106 48.3409ZM110.378 37.9091V48H105.537V30.5455H110.151V33.625H110.355C110.742 32.6098 111.389 31.8068 112.298 31.2159C113.208 30.6174 114.31 30.3182 115.605 30.3182C116.817 30.3182 117.874 30.5833 118.776 31.1136C119.677 31.6439 120.378 32.4015 120.878 33.3864C121.378 34.3636 121.628 35.5303 121.628 36.8864V48H116.787V37.75C116.795 36.6818 116.522 35.8485 115.969 35.25C115.416 34.6439 114.654 34.3409 113.685 34.3409C113.033 34.3409 112.458 34.4811 111.958 34.7614C111.465 35.0417 111.079 35.4508 110.798 35.9886C110.526 36.5189 110.386 37.1591 110.378 37.9091ZM134.183 30.5455V34.1818H123.672V30.5455H134.183ZM126.058 26.3636H130.899V42.6364C130.899 43.0833 130.967 43.4318 131.104 43.6818C131.24 43.9242 131.43 44.0947 131.672 44.1932C131.922 44.2917 132.21 44.3409 132.536 44.3409C132.763 44.3409 132.99 44.322 133.217 44.2841C133.445 44.2386 133.619 44.2045 133.74 44.1818L134.502 47.7841C134.259 47.8598 133.918 47.947 133.479 48.0455C133.039 48.1515 132.505 48.2159 131.877 48.2386C130.71 48.2841 129.687 48.1288 128.808 47.7727C127.937 47.4167 127.259 46.8636 126.774 46.1136C126.289 45.3636 126.051 44.4167 126.058 43.2727V26.3636ZM136.793 48V30.5455H141.634V48H136.793ZM139.225 28.2955C138.505 28.2955 137.888 28.0568 137.372 27.5795C136.865 27.0947 136.611 26.5152 136.611 25.8409C136.611 25.1742 136.865 24.6023 137.372 24.125C137.888 23.6402 138.505 23.3977 139.225 23.3977C139.944 23.3977 140.558 23.6402 141.066 24.125C141.581 24.6023 141.838 25.1742 141.838 25.8409C141.838 26.5152 141.581 27.0947 141.066 27.5795C140.558 28.0568 139.944 28.2955 139.225 28.2955ZM166.353 35.5227L161.921 35.7955C161.845 35.4167 161.682 35.0758 161.432 34.7727C161.182 34.4621 160.853 34.2159 160.443 34.0341C160.042 33.8447 159.561 33.75 159 33.75C158.25 33.75 157.618 33.9091 157.103 34.2273C156.587 34.5379 156.33 34.9545 156.33 35.4773C156.33 35.8939 156.496 36.2462 156.83 36.5341C157.163 36.822 157.735 37.053 158.546 37.2273L161.705 37.8636C163.402 38.2121 164.667 38.7727 165.5 39.5455C166.334 40.3182 166.75 41.3333 166.75 42.5909C166.75 43.7348 166.413 44.7386 165.739 45.6023C165.072 46.4659 164.156 47.1402 162.989 47.625C161.83 48.1023 160.493 48.3409 158.978 48.3409C156.667 48.3409 154.826 47.8598 153.455 46.8977C152.091 45.928 151.292 44.6098 151.057 42.9432L155.818 42.6932C155.962 43.3977 156.311 43.9356 156.864 44.3068C157.417 44.6705 158.125 44.8523 158.989 44.8523C159.837 44.8523 160.519 44.6894 161.034 44.3636C161.557 44.0303 161.822 43.6023 161.83 43.0795C161.822 42.6402 161.637 42.2803 161.273 42C160.909 41.7121 160.349 41.4924 159.591 41.3409L156.568 40.7386C154.864 40.3977 153.595 39.8068 152.762 38.9659C151.936 38.125 151.523 37.053 151.523 35.75C151.523 34.6288 151.826 33.6629 152.432 32.8523C153.046 32.0417 153.906 31.4167 155.012 30.9773C156.125 30.5379 157.428 30.3182 158.921 30.3182C161.125 30.3182 162.86 30.7841 164.125 31.7159C165.398 32.6477 166.14 33.9167 166.353 35.5227ZM177.141 48.3409C175.353 48.3409 173.815 47.9621 172.527 47.2045C171.247 46.4394 170.262 45.3788 169.573 44.0227C168.891 42.6667 168.55 41.1061 168.55 39.3409C168.55 37.553 168.895 35.9848 169.584 34.6364C170.281 33.2803 171.27 32.2235 172.55 31.4659C173.83 30.7008 175.353 30.3182 177.118 30.3182C178.641 30.3182 179.974 30.5947 181.118 31.1477C182.262 31.7008 183.167 32.4773 183.834 33.4773C184.501 34.4773 184.868 35.6515 184.936 37H180.368C180.239 36.1288 179.899 35.428 179.345 34.8977C178.8 34.3598 178.084 34.0909 177.198 34.0909C176.448 34.0909 175.792 34.2955 175.232 34.7045C174.679 35.1061 174.247 35.6932 173.936 36.4659C173.626 37.2386 173.47 38.1742 173.47 39.2727C173.47 40.3864 173.622 41.3333 173.925 42.1136C174.236 42.8939 174.671 43.4886 175.232 43.8977C175.792 44.3068 176.448 44.5114 177.198 44.5114C177.751 44.5114 178.247 44.3977 178.686 44.1705C179.133 43.9432 179.501 43.6136 179.789 43.1818C180.084 42.7424 180.277 42.2159 180.368 41.6023H184.936C184.861 42.9356 184.497 44.1098 183.845 45.125C183.202 46.1326 182.311 46.9205 181.175 47.4886C180.039 48.0568 178.694 48.3409 177.141 48.3409ZM195.378 48.3409C193.613 48.3409 192.087 47.9659 190.799 47.2159C189.518 46.4583 188.53 45.4053 187.833 44.0568C187.136 42.7008 186.787 41.1288 186.787 39.3409C186.787 37.5379 187.136 35.9621 187.833 34.6136C188.53 33.2576 189.518 32.2045 190.799 31.4545C192.087 30.697 193.613 30.3182 195.378 30.3182C197.143 30.3182 198.666 30.697 199.946 31.4545C201.234 32.2045 202.227 33.2576 202.924 34.6136C203.621 35.9621 203.969 37.5379 203.969 39.3409C203.969 41.1288 203.621 42.7008 202.924 44.0568C202.227 45.4053 201.234 46.4583 199.946 47.2159C198.666 47.9659 197.143 48.3409 195.378 48.3409ZM195.401 44.5909C196.204 44.5909 196.874 44.3636 197.412 43.9091C197.95 43.447 198.355 42.8182 198.628 42.0227C198.908 41.2273 199.049 40.322 199.049 39.3068C199.049 38.2917 198.908 37.3864 198.628 36.5909C198.355 35.7955 197.95 35.1667 197.412 34.7045C196.874 34.2424 196.204 34.0114 195.401 34.0114C194.59 34.0114 193.908 34.2424 193.355 34.7045C192.81 35.1667 192.397 35.7955 192.117 36.5909C191.844 37.3864 191.708 38.2917 191.708 39.3068C191.708 40.322 191.844 41.2273 192.117 42.0227C192.397 42.8182 192.81 43.447 193.355 43.9091C193.908 44.3636 194.59 44.5909 195.401 44.5909ZM206.573 48V30.5455H211.266V33.5909H211.448C211.766 32.5076 212.3 31.6894 213.05 31.1364C213.8 30.5758 214.664 30.2955 215.641 30.2955C215.883 30.2955 216.145 30.3106 216.425 30.3409C216.705 30.3712 216.952 30.4129 217.164 30.4659V34.7614C216.936 34.6932 216.622 34.6326 216.221 34.5795C215.819 34.5265 215.452 34.5 215.118 34.5C214.406 34.5 213.77 34.6553 213.209 34.9659C212.656 35.2689 212.217 35.6932 211.891 36.2386C211.573 36.7841 211.414 37.4129 211.414 38.125V48H206.573ZM226.265 48.3409C224.469 48.3409 222.924 47.9773 221.628 47.25C220.34 46.5152 219.348 45.4773 218.651 44.1364C217.954 42.7879 217.606 41.1932 217.606 39.3523C217.606 37.5568 217.954 35.9811 218.651 34.625C219.348 33.2689 220.329 32.2121 221.594 31.4545C222.867 30.697 224.359 30.3182 226.071 30.3182C227.223 30.3182 228.295 30.5038 229.287 30.875C230.287 31.2386 231.159 31.7879 231.901 32.5227C232.651 33.2576 233.234 34.1818 233.651 35.2955C234.068 36.4015 234.276 37.697 234.276 39.1818V40.5114H219.537V37.5114H229.719C229.719 36.8144 229.568 36.197 229.265 35.6591C228.962 35.1212 228.541 34.7008 228.003 34.3977C227.473 34.0871 226.856 33.9318 226.151 33.9318C225.416 33.9318 224.765 34.1023 224.196 34.4432C223.636 34.7765 223.196 35.2273 222.878 35.7955C222.56 36.3561 222.397 36.9811 222.39 37.6705V40.5227C222.39 41.3864 222.549 42.1326 222.867 42.7614C223.193 43.3902 223.651 43.875 224.242 44.2159C224.833 44.5568 225.534 44.7273 226.344 44.7273C226.882 44.7273 227.374 44.6515 227.821 44.5C228.268 44.3485 228.651 44.1212 228.969 43.8182C229.287 43.5152 229.53 43.1439 229.696 42.7045L234.174 43C233.946 44.0758 233.481 45.0152 232.776 45.8182C232.079 46.6136 231.177 47.2348 230.071 47.6818C228.973 48.1212 227.704 48.3409 226.265 48.3409Z" fill="white"/>
<path d="M39 54.3636H235.503V56.5455H39V54.3636Z" fill="white"/>
<path d="M89.1435 79.0909H94.0739L99.2812 91.7955H99.5028L104.71 79.0909H109.641V98H105.763V85.6925H105.606L100.712 97.9077H98.0717L93.1783 85.6463H93.0213V98H89.1435V79.0909ZM116.463 98.2678C115.558 98.2678 114.751 98.1108 114.044 97.7969C113.336 97.4768 112.776 97.0059 112.363 96.3842C111.957 95.7564 111.754 94.9747 111.754 94.0391C111.754 93.2512 111.898 92.5895 112.188 92.054C112.477 91.5185 112.871 91.0876 113.37 90.7614C113.868 90.4351 114.434 90.1889 115.068 90.0227C115.709 89.8565 116.38 89.7396 117.081 89.6719C117.906 89.5857 118.571 89.5057 119.076 89.4318C119.58 89.3518 119.947 89.2348 120.174 89.081C120.402 88.9271 120.516 88.6993 120.516 88.3977V88.3423C120.516 87.7576 120.331 87.3052 119.962 86.9851C119.599 86.665 119.082 86.505 118.411 86.505C117.703 86.505 117.14 86.6619 116.721 86.9759C116.303 87.2836 116.026 87.6714 115.89 88.1392L112.252 87.8438C112.437 86.982 112.8 86.2372 113.342 85.6094C113.884 84.9754 114.582 84.4891 115.438 84.1506C116.3 83.8059 117.297 83.6335 118.429 83.6335C119.217 83.6335 119.971 83.7259 120.691 83.9105C121.418 84.0952 122.061 84.3814 122.621 84.7692C123.187 85.157 123.634 85.6555 123.96 86.2649C124.286 86.8681 124.449 87.5914 124.449 88.4347V98H120.719V96.0334H120.608C120.381 96.4766 120.076 96.8674 119.694 97.206C119.313 97.5384 118.854 97.8 118.318 97.9908C117.783 98.1754 117.164 98.2678 116.463 98.2678ZM117.589 95.5533C118.168 95.5533 118.679 95.4394 119.122 95.2116C119.565 94.9777 119.913 94.6638 120.165 94.2699C120.417 93.8759 120.544 93.4297 120.544 92.9311V91.4261C120.421 91.5062 120.251 91.58 120.036 91.6477C119.827 91.7093 119.59 91.7678 119.325 91.8232C119.06 91.8724 118.796 91.9186 118.531 91.9616C118.266 91.9986 118.026 92.0324 117.811 92.0632C117.349 92.1309 116.946 92.2386 116.601 92.3864C116.256 92.5341 115.989 92.7341 115.798 92.9865C115.607 93.2327 115.512 93.5405 115.512 93.9098C115.512 94.4453 115.706 94.8546 116.093 95.1378C116.487 95.4148 116.986 95.5533 117.589 95.5533ZM130.992 89.8011V98H127.059V83.8182H130.807V86.3203H130.973C131.287 85.4955 131.814 84.843 132.552 84.3629C133.291 83.8767 134.186 83.6335 135.239 83.6335C136.224 83.6335 137.083 83.849 137.815 84.2798C138.548 84.7107 139.117 85.3262 139.523 86.1264C139.929 86.9205 140.133 87.8684 140.133 88.9702V98H136.199V89.6719C136.205 88.804 135.984 88.1269 135.535 87.6406C135.085 87.1482 134.467 86.902 133.679 86.902C133.149 86.902 132.682 87.0159 132.275 87.2436C131.875 87.4714 131.561 87.8037 131.334 88.2408C131.112 88.6716 130.998 89.1918 130.992 89.8011ZM146.354 93.919L146.364 89.201H146.936L151.479 83.8182H155.994L149.891 90.946H148.958L146.354 93.919ZM142.79 98V79.0909H146.724V98H142.79ZM151.654 98L147.481 91.8232L150.103 89.044L156.261 98H151.654ZM163.36 98.277C161.902 98.277 160.646 97.9815 159.593 97.3906C158.547 96.7936 157.741 95.9503 157.174 94.8608C156.608 93.7652 156.325 92.4695 156.325 90.9737C156.325 89.5149 156.608 88.2346 157.174 87.1328C157.741 86.031 158.538 85.1723 159.566 84.5568C160.6 83.9413 161.812 83.6335 163.203 83.6335C164.139 83.6335 165.01 83.7843 165.816 84.0859C166.629 84.3814 167.337 84.8277 167.94 85.4247C168.549 86.0218 169.023 86.7727 169.362 87.6776C169.7 88.5762 169.87 89.6288 169.87 90.8352V91.9155H157.894V89.478H166.167C166.167 88.9117 166.044 88.41 165.798 87.973C165.552 87.536 165.21 87.1944 164.773 86.9482C164.342 86.6958 163.84 86.5696 163.268 86.5696C162.671 86.5696 162.142 86.7081 161.68 86.9851C161.224 87.2559 160.867 87.6222 160.609 88.0838C160.35 88.5393 160.218 89.0471 160.212 89.6072V91.9247C160.212 92.6264 160.341 93.2327 160.6 93.7436C160.864 94.2545 161.237 94.6484 161.717 94.9254C162.197 95.2024 162.766 95.3409 163.425 95.3409C163.862 95.3409 164.262 95.2794 164.625 95.1562C164.988 95.0331 165.299 94.8485 165.558 94.6023C165.816 94.3561 166.013 94.0545 166.149 93.6974L169.787 93.9375C169.602 94.8116 169.223 95.5748 168.651 96.2273C168.085 96.8736 167.352 97.3783 166.453 97.7415C165.561 98.0985 164.53 98.277 163.36 98.277ZM174.042 103.318C173.543 103.318 173.075 103.278 172.638 103.198C172.207 103.124 171.85 103.029 171.567 102.912L172.454 99.9759C172.915 100.117 173.331 100.194 173.7 100.207C174.076 100.219 174.399 100.133 174.67 99.9482C174.947 99.7635 175.171 99.4496 175.344 99.0064L175.574 98.4062L170.487 83.8182H174.623L177.56 94.233H177.707L180.671 83.8182H184.835L179.323 99.5327C179.058 100.296 178.698 100.961 178.243 101.527C177.793 102.099 177.224 102.54 176.535 102.847C175.845 103.161 175.014 103.318 174.042 103.318Z" fill="white"/>
<path d="M139.5 119C120.291 119 101.488 124.533 85.3396 134.937C69.1916 145.34 56.3817 160.175 48.4419 177.667C40.5021 195.159 37.7682 214.567 40.5673 233.571C43.3664 252.576 51.5799 270.372 64.2258 284.832C76.8716 299.291 93.4145 309.803 111.877 315.109C130.338 320.415 149.938 320.292 168.332 314.753C186.725 309.215 203.135 298.496 215.597 283.878C228.06 269.26 236.049 251.362 238.608 232.324L204.029 227.675C202.363 240.071 197.162 251.725 189.047 261.242C180.933 270.76 170.248 277.739 158.272 281.345C146.296 284.951 133.535 285.032 121.514 281.577C109.494 278.122 98.7226 271.278 90.4889 261.863C82.2552 252.448 76.9074 240.861 75.0849 228.487C73.2624 216.114 75.0424 203.477 80.2121 192.088C85.3817 180.699 93.7222 171.04 104.236 164.266C114.75 157.492 126.993 153.89 139.5 153.89V119Z" fill="url(#paint0_angular_512_4)"/>
<path d="M99.8068 362L109.455 342.909V342.75H98.2159V338.727H114.545V342.807L104.886 362H99.8068ZM117.374 362V358.455L125.658 350.784C126.362 350.102 126.953 349.489 127.43 348.943C127.915 348.398 128.283 347.864 128.533 347.341C128.783 346.811 128.908 346.239 128.908 345.625C128.908 344.943 128.752 344.356 128.442 343.864C128.131 343.364 127.707 342.981 127.169 342.716C126.631 342.443 126.021 342.307 125.34 342.307C124.627 342.307 124.006 342.451 123.476 342.739C122.946 343.027 122.536 343.439 122.249 343.977C121.961 344.515 121.817 345.155 121.817 345.898H117.146C117.146 344.375 117.491 343.053 118.18 341.932C118.87 340.811 119.836 339.943 121.078 339.33C122.321 338.716 123.752 338.409 125.374 338.409C127.04 338.409 128.491 338.705 129.726 339.295C130.968 339.879 131.934 340.689 132.624 341.727C133.313 342.765 133.658 343.955 133.658 345.295C133.658 346.174 133.483 347.042 133.135 347.898C132.794 348.754 132.184 349.705 131.305 350.75C130.427 351.788 129.188 353.034 127.59 354.489L124.192 357.818V357.977H133.965V362H117.374ZM145.588 362.318C143.891 362.318 142.38 362.027 141.054 361.443C139.736 360.852 138.694 360.042 137.929 359.011C137.171 357.973 136.781 356.777 136.759 355.42H141.713C141.743 355.989 141.929 356.489 142.27 356.92C142.618 357.345 143.081 357.674 143.656 357.909C144.232 358.144 144.88 358.261 145.599 358.261C146.349 358.261 147.012 358.129 147.588 357.864C148.164 357.598 148.615 357.231 148.94 356.761C149.266 356.292 149.429 355.75 149.429 355.136C149.429 354.515 149.255 353.966 148.906 353.489C148.565 353.004 148.073 352.625 147.429 352.352C146.793 352.08 146.035 351.943 145.156 351.943H142.986V348.33H145.156C145.899 348.33 146.554 348.201 147.122 347.943C147.698 347.686 148.145 347.33 148.463 346.875C148.781 346.413 148.94 345.875 148.94 345.261C148.94 344.678 148.8 344.167 148.52 343.727C148.247 343.28 147.861 342.932 147.361 342.682C146.868 342.432 146.293 342.307 145.634 342.307C144.967 342.307 144.357 342.428 143.804 342.67C143.251 342.905 142.808 343.242 142.474 343.682C142.141 344.121 141.963 344.636 141.94 345.227H137.224C137.247 343.886 137.63 342.705 138.372 341.682C139.115 340.659 140.115 339.86 141.372 339.284C142.637 338.701 144.065 338.409 145.656 338.409C147.262 338.409 148.668 338.701 149.872 339.284C151.077 339.867 152.012 340.655 152.679 341.648C153.353 342.633 153.687 343.739 153.679 344.966C153.687 346.269 153.281 347.356 152.463 348.227C151.653 349.098 150.596 349.652 149.293 349.886V350.068C151.005 350.288 152.308 350.883 153.202 351.852C154.103 352.814 154.55 354.019 154.543 355.466C154.55 356.792 154.168 357.97 153.395 359C152.63 360.03 151.573 360.841 150.224 361.432C148.876 362.023 147.331 362.318 145.588 362.318Z" fill="white"/>
<defs>
<radialGradient id="paint0_angular_512_4" cx="0" cy="0" r="1" gradientUnits="userSpaceOnUse" gradientTransform="translate(139.5 219) rotate(90) scale(123.333)">
<stop offset="0.48635" stop-color="#37ABFF"/>
<stop offset="0.628888" stop-color="#159300"/>
</radialGradient>
</defs>
</svg>
